<svg xmlns="http://www.w3.org/2000/svg" width="40" height="32.176" viewBox="0 0 40 32.176"><path d="M7.732,12.057A55.907,55.907,0,0,0,21.079,13.39a55.141,55.141,0,0,0,13.347-1.333c3.716-.866,5.5-2.033,5.5-3.133,0-.783-.8-1.55-2.249-2.133a1.217,1.217,0,0,1,.583.983c0,1.116-1.683,2.033-5.065,2.8a56.688,56.688,0,0,1-12,1.166A58.581,58.581,0,0,1,9.3,10.607c-3.249-.8-4.949-1.666-4.949-2.8,0-.467.217-.866.866-1.333-2.033.783-3.133,1.45-3.133,2.449.117,1.133,1.933,2.266,5.649,3.133Zm7.815-3.6c3.782-.333,4.882-2.766,9.314-3.166,2.183-.167,3.566.267,3.716,1.033.133.716-.95,1.2-2.266,1.3-1.816.183-2.566-.467-2.716-1.083-1.35.15-1.566.716-1.5,1.116.15.766,1.783,1.533,4.582,1.266,3.166-.25,4.232-1.5,3.966-2.749-.333-1.633-2.766-3-7.132-2.583-5.6.5-5.565,3.1-9.381,3.416-1.566.15-2.433-.217-2.583-.833-.1-.617.667-.916,1.566-.983a4.709,4.709,0,0,1,2.333.333c.35-.183.467-.367.433-.583-.167-.583-1.316-.833-2.766-.733-2.833.25-2.833,1.516-2.733,2.083.283,1.45,2.466,2.416,5.165,2.166Zm19.029,6.4a59.471,59.471,0,0,1-13.347,1.35A62.92,62.92,0,0,1,7.766,14.873c-3.133-.8-4.8-1.683-5.382-2.6a31.368,31.368,0,0,0,1.483,5.915A8.193,8.193,0,0,0,1.7,20.138,7.531,7.531,0,0,0,0,25.3a6,6,0,0,0,2.366,4.366,5.672,5.672,0,0,0,4.8,1.133,16.122,16.122,0,0,0,2.149-.7,6.022,6.022,0,0,1-3.932-1.45A5.915,5.915,0,0,1,2.9,24.621a5.376,5.376,0,0,1,.883-4.3,4.926,4.926,0,0,1,.65-.667,38.065,38.065,0,0,0,1.633,3.532c1.35,2.049,2.7,3.832,4.049,5.765a14.736,14.736,0,0,1,1.233,3.366,6.5,6.5,0,0,0,3.716,2.5,15.388,15.388,0,0,0,5.965.85h.217a17,17,0,0,0,6.148-.866,6.965,6.965,0,0,0,3.6-2.483h.117a14.244,14.244,0,0,1,1.116-3.366c1.333-1.95,2.7-3.716,4.032-5.765a34.991,34.991,0,0,0,3.732-10.9C39.275,13.29,37.592,14.173,34.576,14.856Z" transform="translate(0.009 -3.517)"/></svg>