<svg xmlns="http://www.w3.org/2000/svg" width="33" height="31.636" viewBox="0 0 33 31.636"><path d="M15,31.5A1.5,1.5,0,1,1,13.5,30,1.5,1.5,0,0,1,15,31.5Z" transform="translate(-1.05 -2.864)" fill="none" stroke="#000" stroke-linecap="round" stroke-linejoin="round" stroke-width="3"/><path d="M31.5,31.5A1.5,1.5,0,1,1,30,30,1.5,1.5,0,0,1,31.5,31.5Z" transform="translate(-3 -2.864)" fill="none" stroke="#000" stroke-linecap="round" stroke-linejoin="round" stroke-width="3"/><path d="M1.5,1.5H6.955l3.655,17.529a2.7,2.7,0,0,0,2.727,2.108H26.591a2.7,2.7,0,0,0,2.727-2.108L31.5,8.045H8.318" fill="none" stroke="#000" stroke-linecap="round" stroke-linejoin="round" stroke-width="3"/></svg>